<svg width="25" height="25" viewBox="0 0 25 25" fill="none" xmlns="http://www.w3.org/2000/svg">
<path d="M16.3658 17.3926L18.3657 15.3926C18.6351 15.1266 18.9759 14.9445 19.3468 14.8684C19.7177 14.7923 20.1027 14.8255 20.455 14.964L22.8925 15.9373C23.2486 16.0818 23.5539 16.3285 23.77 16.6463C23.9861 16.9641 24.1033 17.3387 24.1068 17.723V22.1873C24.1047 22.4487 24.0498 22.707 23.9453 22.9466C23.8408 23.1862 23.6888 23.4022 23.4986 23.5815C23.3084 23.7609 23.0839 23.8999 22.8386 23.9902C22.5933 24.0804 22.3322 24.1202 22.0711 24.1069C4.99075 23.0444 1.54432 8.58011 0.892536 3.0444C0.86228 2.77256 0.889924 2.49739 0.973651 2.237C1.05738 1.97661 1.19529 1.73689 1.37831 1.53363C1.56133 1.33036 1.78532 1.16815 2.03553 1.05767C2.28575 0.947189 2.55652 0.890936 2.83004 0.892615H7.14254C7.52737 0.893754 7.90305 1.01 8.22128 1.22639C8.53951 1.44279 8.78572 1.74944 8.92825 2.1069L9.90146 4.5444C10.0445 4.89535 10.0811 5.28069 10.0064 5.65227C9.93179 6.02385 9.74932 6.3652 9.48182 6.63369L7.48182 8.63369C7.48182 8.63369 8.63361 16.4283 16.3658 17.3926Z" fill="#2C2C2C"/>
</svg>
