<svg width="25" height="18" viewBox="0 0 25 18" fill="none" xmlns="http://www.w3.org/2000/svg">
<path d="M5.13436 11.5594C4.80488 11.2219 4.64929 10.8187 4.6676 10.35C4.6859 9.88125 4.86895 9.51562 5.21673 9.25313C6.22346 8.46563 7.34479 7.85138 8.58069 7.41037C9.81587 6.97012 11.1199 6.75 12.4927 6.75C13.8838 6.75 15.1973 6.975 16.4332 7.425C17.6684 7.875 18.7894 8.50312 19.7961 9.30937C20.1439 9.57187 20.3225 9.933 20.3321 10.3927C20.3408 10.8517 20.1805 11.25 19.851 11.5875C19.5399 11.9062 19.1602 12.0705 18.7121 12.0802C18.2633 12.0892 17.8467 11.9625 17.4623 11.7C16.7484 11.1937 15.9753 10.8049 15.1428 10.5334C14.3096 10.2611 13.4262 10.125 12.4927 10.125C11.5592 10.125 10.6762 10.2656 9.84369 10.5469C9.01048 10.8281 8.24609 11.2125 7.55053 11.7C7.14783 11.9812 6.72244 12.108 6.27435 12.0802C5.82553 12.0518 5.44553 11.8781 5.13436 11.5594ZM0.46676 6.80625C0.155587 6.4875 0 6.09825 0 5.6385C0 5.1795 0.164739 4.8 0.494216 4.5C2.1233 3.09375 3.95373 1.992 5.98551 1.19475C8.01729 0.39825 10.1863 0 12.4927 0C14.799 0 16.9681 0.39825 18.9999 1.19475C21.0316 1.992 22.8621 3.09375 24.4912 4.5C24.8206 4.8 24.9901 5.175 24.9997 5.625C25.0084 6.075 24.8481 6.46875 24.5186 6.80625C24.2074 7.125 23.8278 7.29375 23.3797 7.3125C22.9309 7.33125 22.5235 7.19063 22.1574 6.89062C20.8211 5.78438 19.3341 4.92188 17.6962 4.30312C16.0576 3.68437 14.3231 3.375 12.4927 3.375C10.6623 3.375 8.92811 3.68437 7.29024 4.30312C5.65164 4.92188 4.16423 5.78438 2.82802 6.89062C2.46193 7.19063 2.05484 7.33125 1.60675 7.3125C1.15793 7.29375 0.777933 7.125 0.46676 6.80625ZM12.4927 18C11.8703 18 11.3487 17.7844 10.9277 17.3531C10.5067 16.9219 10.2962 16.3875 10.2962 15.75C10.2962 15.1125 10.5067 14.5781 10.9277 14.1469C11.3487 13.7156 11.8703 13.5 12.4927 13.5C13.115 13.5 13.6367 13.7156 14.0577 14.1469C14.4787 14.5781 14.6892 15.1125 14.6892 15.75C14.6892 16.3875 14.4787 16.9219 14.0577 17.3531C13.6367 17.7844 13.115 18 12.4927 18Z" fill="#595B5E"/>
</svg>
