<svg width="25" height="25" viewBox="0 0 25 25" fill="none" xmlns="http://www.w3.org/2000/svg">
<g clip-path="url(#clip0_277_973)">
<path fill-rule="evenodd" clip-rule="evenodd" d="M5.28125 2.94169C5.28125 1.34463 12.5 0.125 12.5 0.125C12.5 0.125 19.7188 1.34463 19.7188 2.94169C19.7188 5.07088 18.4056 5.96875 18.4056 5.96875H6.59437C6.59437 5.96875 5.28125 5.07088 5.28125 2.94169ZM13.5312 3.21875C13.5312 3.49225 13.4226 3.75456 13.2292 3.94795C13.0358 4.14135 12.7735 4.25 12.5 4.25C12.2265 4.25 11.9642 4.14135 11.7708 3.94795C11.5774 3.75456 11.4688 3.49225 11.4688 3.21875C11.4688 2.94525 11.5774 2.68294 11.7708 2.48955C11.9642 2.29615 12.2265 2.1875 12.5 2.1875C12.7735 2.1875 13.0358 2.29615 13.2292 2.48955C13.4226 2.68294 13.5312 2.94525 13.5312 3.21875ZM17.8721 8.5675C18.8277 7.82156 18.6792 7 18.6792 7H6.32075C6.32075 7 6.17156 7.82156 7.12788 8.5675C6.95183 9.3707 6.95812 10.2031 7.14628 11.0036C7.33443 11.804 7.69967 12.5521 8.21511 13.1928C8.73055 13.8334 9.38308 14.3503 10.1247 14.7055C10.8663 15.0607 11.6781 15.245 12.5003 15.245C13.3226 15.245 14.1344 15.0607 14.876 14.7055C15.6176 14.3503 16.2701 13.8334 16.7856 13.1928C17.301 12.5521 17.6663 11.804 17.8544 11.0036C18.0426 10.2031 18.0489 9.3707 17.8728 8.5675H17.8721ZM12.5 9.75C14.3707 9.75 15.6783 9.53412 16.592 9.22337C16.6663 9.80454 16.616 10.3949 16.4444 10.9551C16.2728 11.5153 15.9838 12.0325 15.5967 12.4723C15.2096 12.9121 14.7332 13.2644 14.1993 13.5057C13.6654 13.747 13.0862 13.8718 12.5003 13.8718C11.9144 13.8718 11.3353 13.747 10.8014 13.5057C10.2675 13.2644 9.79111 12.9121 9.40399 12.4723C9.01688 12.0325 8.72789 11.5153 8.55627 10.9551C8.38465 10.3949 8.33434 9.80454 8.40869 9.22337C9.32169 9.53412 10.6293 9.75 12.5 9.75ZM13.5312 16.625C13.7136 16.625 13.8885 16.6974 14.0174 16.8264C14.1463 16.9553 14.2188 17.1302 14.2188 17.3125V18.2626C14.2187 18.3903 14.1831 18.5154 14.1159 18.6239C14.0488 18.7325 13.9527 18.8202 13.8386 18.8773L13.5312 19.0312L13.9279 21.0147L16.8429 16.6422C17.0423 16.6422 17.2279 16.6436 17.3957 16.6449C21.1116 17.4926 24.875 19.221 24.875 21.8211V24.875H0.125V21.8211C0.125 19.221 4.05269 17.4727 7.76863 16.625C7.75556 16.6278 7.89513 16.6298 8.15019 16.6319L11.0954 21.0491L11.4688 19.0312L11.1614 18.8773C11.0473 18.8202 10.9512 18.7325 10.8841 18.6239C10.8169 18.5154 10.7813 18.3903 10.7812 18.2626V17.3125C10.7812 17.1302 10.8537 16.9553 10.9826 16.8264C11.1115 16.6974 11.2864 16.625 11.4688 16.625H13.5312ZM20.0625 20.2914C20.0625 20.2914 19.1461 19.8336 18.6875 19.375C18.2289 19.8336 17.3125 20.2914 17.3125 20.2914C17.3125 20.2914 17.7924 22.125 18.6875 22.125C19.5826 22.125 20.0625 20.2914 20.0625 20.2914Z" fill="#4C4D4E"/>
</g>
<defs>
<clipPath id="clip0_277_973">
<rect width="25" height="25" fill="white"/>
</clipPath>
</defs>
</svg>
