<svg width="25" height="25" viewBox="0 0 25 25" fill="none" xmlns="http://www.w3.org/2000/svg">
<path d="M12.5 24C9.98646 24 7.77494 23.1359 5.86544 21.4076C3.95515 19.6785 3 17.3393 3 14.3898C3 12.5342 3.7125 10.5223 5.1375 8.35414C6.5625 6.18599 8.71979 3.84204 11.6094 1.32229C11.7281 1.22463 11.8667 1.1465 12.025 1.0879C12.1833 1.0293 12.3417 1 12.5 1C12.6583 1 12.8167 1.0293 12.975 1.0879C13.1333 1.1465 13.2719 1.22463 13.3906 1.32229C16.2802 3.84204 18.4375 6.18599 19.8625 8.35414C21.2875 10.5223 22 12.5342 22 14.3898C22 17.3393 21.0449 19.6785 19.1346 21.4076C17.2251 23.1359 15.0135 24 12.5 24ZM12.5 21.6561C14.499 21.6561 16.186 20.9822 17.5611 19.6344C18.937 18.2866 19.625 16.5384 19.625 14.3898C19.625 13.003 19.0411 11.4157 17.8734 9.62808C16.7057 7.84121 14.9146 5.85393 12.5 3.66624C10.0854 5.85393 8.29427 7.84121 7.12656 9.62808C5.95885 11.4157 5.375 13.003 5.375 14.3898C5.375 16.5384 6.06256 18.2866 7.43769 19.6344C8.8136 20.9822 10.501 21.6561 12.5 21.6561ZM12.8266 20.4841C13.0641 20.4645 13.2671 20.372 13.4358 20.2063C13.6036 20.0399 13.6875 19.8395 13.6875 19.6051C13.6875 19.3316 13.5984 19.1121 13.4203 18.9464C13.2422 18.78 13.0146 18.7066 12.7375 18.7261C11.926 18.7847 11.0651 18.5652 10.1547 18.0675C9.24427 17.569 8.67031 16.6654 8.43281 15.3567C8.39323 15.1418 8.28913 14.966 8.1205 14.8293C7.95267 14.6926 7.7599 14.6242 7.54219 14.6242C7.2651 14.6242 7.0375 14.7266 6.85938 14.9313C6.68125 15.1367 6.62187 15.3762 6.68125 15.6497C7.01771 17.4272 7.80938 18.6968 9.05625 19.4586C10.3031 20.2204 11.5599 20.5622 12.8266 20.4841Z" fill="#595B5E"/>
</svg>
