<svg width="25" height="24" viewBox="0 0 25 24" fill="none" xmlns="http://www.w3.org/2000/svg">
<path fill-rule="evenodd" clip-rule="evenodd" d="M2.08361 2.08333V9.45946H22.9169V2.08333H2.08361ZM22.5636 11.5428H2.43697L2.9459 13.2606C3.02776 13.5373 3.1919 13.774 3.40758 13.9388C3.6227 14.1032 3.87892 14.1891 4.13843 14.1892H5.62527C6.20057 14.1892 6.66694 14.6556 6.66694 15.2309C6.66694 15.8062 6.20057 16.2725 5.62527 16.2725H4.13798C3.41594 16.2722 2.71621 16.0325 2.14254 15.5941C1.56953 15.1562 1.15319 14.5444 0.948391 13.8524L0.0500512 10.8202C0.0324716 10.7655 0.0192897 10.7089 0.010922 10.6506C0.00240912 10.5924 -0.00104696 10.5344 0.000272786 10.4769V1.75113C0.000272786 1.29708 0.174751 0.855295 0.495248 0.524561C0.816824 0.192714 1.26008 0 1.72944 0H23.2711C23.7405 0 24.1837 0.192713 24.5053 0.524561C24.8258 0.855296 25.0003 1.29708 25.0003 1.75113V10.4769C25.0016 10.5344 24.9981 10.5925 24.9896 10.6508C24.9812 10.7089 24.9681 10.7656 24.9505 10.8202L24.0523 13.8521C23.8475 14.544 23.431 15.1562 22.858 15.5941C22.2843 16.0325 21.5851 16.2722 20.863 16.2725H19.3753C18.8 16.2725 18.3336 15.8062 18.3336 15.2309C18.3336 14.6556 18.8 14.1892 19.3753 14.1892H20.8621C21.1216 14.1891 21.3778 14.1032 21.593 13.9388C21.8086 13.774 21.9727 13.5377 22.0545 13.261L22.5636 11.5428ZM18.3336 5.7714C18.3336 5.1961 18.8 4.72973 19.3753 4.72973H20.5211C21.0964 4.72973 21.5628 5.1961 21.5628 5.7714C21.5628 6.34669 21.0964 6.81306 20.5211 6.81306H19.3753C18.8 6.81306 18.3336 6.34669 18.3336 5.7714ZM12.5003 13.598C13.0756 13.598 13.5419 14.0643 13.5419 14.6396V22.9167C13.5419 23.492 13.0756 23.9583 12.5003 23.9583C11.925 23.9583 11.4586 23.492 11.4586 22.9167V14.6396C11.4586 14.0643 11.925 13.598 12.5003 13.598Z" fill="#595B5E"/>
<path d="M10.6774 14.6396C10.6774 14.0643 10.211 13.598 9.63569 13.598C8.97878 13.6222 8.59318 14.1683 8.59318 14.7158C8.5923 14.7704 8.59049 14.8529 8.58681 14.9593C8.57945 15.1721 8.5646 15.4793 8.53474 15.8491C8.47466 16.5931 8.35541 17.5694 8.12201 18.5329C7.88492 19.5115 7.54917 20.3946 7.10117 21.011C6.67334 21.5996 6.20429 21.875 5.62527 21.875C5.04998 21.875 4.58361 22.3414 4.58361 22.9167C4.58361 23.492 5.04998 23.9583 5.62527 23.9583C7.05147 23.9583 8.08632 23.1991 8.78642 22.2358C9.46635 21.3003 9.88255 20.114 10.1468 19.0234C10.4147 17.9176 10.5461 16.8247 10.6113 16.0168C10.6441 15.6106 10.6606 15.2711 10.6689 15.0313C10.6731 14.9113 10.6752 14.816 10.6762 14.7494L10.6774 14.6396Z" fill="#595B5E"/>
<path d="M14.3243 14.7494C14.3254 14.816 14.3275 14.9113 14.3316 15.0313C14.3399 15.2711 14.3564 15.6106 14.3892 16.0168C14.4545 16.8247 14.5859 17.9176 14.8538 19.0234C15.118 20.114 15.5342 21.3003 16.2141 22.2358C16.9142 23.1991 17.9491 23.9583 19.3753 23.9583C19.9506 23.9583 20.4169 23.492 20.4169 22.9167C20.4169 22.3414 19.9506 21.875 19.3753 21.875C18.7963 21.875 18.3272 21.5996 17.8994 21.011C17.4514 20.3946 17.1156 19.5115 16.8785 18.5329C16.6451 17.5694 16.5259 16.5931 16.4658 15.8491C16.4359 15.4793 16.4211 15.1721 16.4137 14.9593C16.4101 14.8529 16.4082 14.7704 16.4074 14.7158C16.4137 14.0137 15.9975 13.6053 15.3649 13.598C14.7896 13.598 14.3232 14.0649 14.3232 14.6402L14.3243 14.7494Z" fill="#595B5E"/>
</svg>
