<svg width="23" height="25" viewBox="0 0 23 25" fill="none" xmlns="http://www.w3.org/2000/svg">
<path fill-rule="evenodd" clip-rule="evenodd" d="M3.33333 2C2.97511 2 2.6344 2.14041 2.38542 2.38583C2.13693 2.63077 2 2.9599 2 3.3V21.7C2 22.0401 2.13693 22.3692 2.38542 22.6142C2.6344 22.8596 2.97511 23 3.33333 23H19.6667C20.0249 23 20.3656 22.8596 20.6146 22.6142C20.8631 22.3692 21 22.0401 21 21.7V3.3C21 2.9599 20.8631 2.63077 20.6146 2.38583C20.3656 2.14041 20.0249 2 19.6667 2H3.33333ZM0.981416 0.961479C1.60761 0.344233 2.45388 0 3.33333 0H19.6667C20.5461 0 21.3924 0.344233 22.0186 0.961479C22.6453 1.5792 23 2.4201 23 3.3V21.7C23 22.5799 22.6453 23.4208 22.0186 24.0385C21.3924 24.6558 20.5461 25 19.6667 25H3.33333C2.45388 25 1.60761 24.6558 0.981416 24.0385C0.354737 23.4208 0 22.5799 0 21.7V3.3C0 2.4201 0.354738 1.5792 0.981416 0.961479Z" fill="#595B5E"/>
<path fill-rule="evenodd" clip-rule="evenodd" d="M6.37348 8.41514C7.73311 7.0555 9.57718 6.29166 11.5 6.29166C13.4228 6.29166 15.2669 7.0555 16.6265 8.41514C17.9862 9.77478 18.75 11.6188 18.75 13.5417C18.75 15.4645 17.9862 17.3085 16.6265 18.6682C15.2669 20.0278 13.4228 20.7917 11.5 20.7917C9.57718 20.7917 7.73312 20.0278 6.37348 18.6682C5.01384 17.3085 4.25 15.4645 4.25 13.5417C4.25 11.6188 5.01384 9.77478 6.37348 8.41514ZM11.5 18.7917C12.8924 18.7917 14.2277 18.2385 15.2123 17.254C16.1969 16.2694 16.75 14.9341 16.75 13.5417C16.75 12.1493 16.1969 10.8139 15.2123 9.82935C14.2277 8.84479 12.8924 8.29166 11.5 8.29166C10.1076 8.29166 8.77226 8.84479 7.78769 9.82935C6.80312 10.8139 6.25 12.1493 6.25 13.5417C6.25 14.9341 6.80312 16.2694 7.78769 17.254C8.77225 18.2385 10.1076 18.7917 11.5 18.7917Z" fill="#595B5E"/>
</svg>
