<svg width="25" height="25" viewBox="0 0 25 25" fill="none" xmlns="http://www.w3.org/2000/svg">
<g clip-path="url(#clip0_277_786)">
<path d="M12.4997 19.0378C12.7821 19.2197 13.0735 19.3873 13.3728 19.5399V23.8511C13.3728 24.0827 13.2808 24.3048 13.1171 24.4685C12.9534 24.6323 12.7313 24.7243 12.4997 24.7243C12.2681 24.7243 12.046 24.6323 11.8823 24.4685C11.7185 24.3048 11.6265 24.0827 11.6265 23.8511V19.5399C11.9258 19.3873 12.2172 19.2197 12.4997 19.0378ZM20.1508 5.3619C19.5191 3.85378 18.4559 2.56597 17.0946 1.66025C15.7333 0.754543 14.1347 0.271332 12.4997 0.271332C10.8646 0.271332 9.26604 0.754543 7.90477 1.66025C6.54349 2.56597 5.48024 3.85378 4.8486 5.3619C3.48951 5.99171 2.33775 6.99534 1.52793 8.2555C0.718106 9.51565 0.283678 10.9803 0.275417 12.4782C0.264502 16.713 3.70258 20.2493 7.9265 20.3585C9.20819 20.3919 10.4786 20.1109 11.6265 19.5399V15.6543L6.86779 13.2858C6.65937 13.1816 6.50088 12.9989 6.42719 12.7778C6.39071 12.6684 6.37614 12.5528 6.38432 12.4377C6.3925 12.3226 6.42327 12.2103 6.47486 12.1071C6.52646 12.0039 6.59789 11.9119 6.68505 11.8363C6.77221 11.7607 6.87341 11.703 6.98287 11.6665C7.20393 11.5928 7.44521 11.6099 7.65363 11.7142L11.6265 13.7115V8.13419C11.6265 7.90261 11.7185 7.68052 11.8823 7.51677C12.046 7.35302 12.2681 7.26103 12.4997 7.26103C12.7313 7.26103 12.9534 7.35302 13.1171 7.51677C13.2808 7.68052 13.3728 7.90261 13.3728 8.13419V11.092L17.3457 9.09467C17.5541 8.99046 17.7954 8.97331 18.0165 9.047C18.2376 9.12069 18.4203 9.27917 18.5245 9.48759C18.6287 9.69601 18.6459 9.93729 18.5722 10.1584C18.4985 10.3794 18.34 10.5621 18.1316 10.6664L13.3728 13.0348V19.5399C14.4584 20.0784 15.6537 20.3585 16.8655 20.3585H17.0729C21.2968 20.2493 24.7349 16.713 24.7239 12.4782C24.7157 10.9803 24.2813 9.51565 23.4714 8.2555C22.6616 6.99534 21.5099 5.99171 20.1508 5.3619Z" fill="#595B5E"/>
</g>
<defs>
<clipPath id="clip0_277_786">
<rect width="25" height="25" fill="white"/>
</clipPath>
</defs>
</svg>
