<svg width="25" height="25" viewBox="0 0 25 25" fill="none" xmlns="http://www.w3.org/2000/svg">
<g clip-path="url(#clip0_271_591)">
<path fill-rule="evenodd" clip-rule="evenodd" d="M3.11595 2.04166C2.52169 2.04166 2.04199 2.52175 2.04199 3.11562L2.04199 21.8854C2.04185 22.0264 2.0695 22.166 2.12335 22.2963C2.17721 22.4266 2.25622 22.545 2.35586 22.6447C2.45551 22.7445 2.57383 22.8236 2.70407 22.8776C2.83431 22.9316 2.97392 22.9594 3.11491 22.9594H21.8847C22.479 22.9594 22.9587 22.4793 22.9587 21.8854V3.11562C22.9587 2.52103 22.4783 2.04166 21.8857 2.04166H3.11595ZM0.0419933 3.11562V3.11458C0.0425553 1.41727 1.41681 0.0416641 3.11595 0.0416641H21.8857C23.5828 0.0416641 24.9587 1.41646 24.9587 3.11562V21.8854C24.9587 23.5832 23.5842 24.9594 21.8847 24.9594H3.11491C2.71111 24.9594 2.31127 24.8798 1.93824 24.7252C1.56522 24.5705 1.22632 24.3439 0.940938 24.0582C0.655552 23.7726 0.429266 23.4335 0.275019 23.0603C0.120838 22.6873 0.0416557 22.2875 0.0419933 21.8839V3.11562ZM6.88998 4.80632C7.27287 4.42343 7.79218 4.20833 8.33366 4.20833C8.87514 4.20833 9.39445 4.42343 9.77734 4.80632C10.1602 5.18921 10.3753 5.70851 10.3753 6.25C10.3753 6.79148 10.1602 7.31079 9.77734 7.69367C9.39445 8.07656 8.87514 8.29166 8.33366 8.29166C7.79218 8.29166 7.27287 8.07656 6.88998 7.69367C6.5071 7.31079 6.29199 6.79148 6.29199 6.25C6.29199 5.70851 6.5071 5.18921 6.88998 4.80632ZM17.1878 6.66666L20.7503 11.4167H13.6253L17.1878 6.66666ZM6.68471 12.8256L5.78315 18.5956C5.69789 19.1413 6.07112 19.6527 6.61678 19.738C7.16245 19.8233 7.67391 19.45 7.75917 18.9044L8.33366 15.2276L8.90815 18.9044C8.99341 19.45 9.50487 19.8233 10.0505 19.738C10.5962 19.6527 10.9694 19.1413 10.8842 18.5956L9.98261 12.8256L10.5642 13.9889C10.8112 14.4829 11.4119 14.6831 11.9059 14.4361C12.3999 14.1891 12.6001 13.5884 12.3531 13.0944L10.733 9.85425C10.5035 9.39388 10.1207 9.0345 9.72974 8.79418C9.33806 8.5534 8.84631 8.375 8.33366 8.375C7.81949 8.375 7.32774 8.55304 6.93549 8.79474C6.54378 9.03612 6.16407 9.39477 5.93507 9.85278L4.31423 13.0944C4.06724 13.5884 4.26747 14.1891 4.76145 14.4361C5.25542 14.6831 5.8561 14.4829 6.10309 13.9889L6.68471 12.8256ZM13.6253 13.5833H20.7503L17.1878 18.3333L13.6253 13.5833Z" fill="#4C4D4E"/>
</g>
<defs>
<clipPath id="clip0_271_591">
<rect width="25" height="25" fill="white"/>
</clipPath>
</defs>
</svg>
