<svg width="35" height="35" viewBox="0 0 35 35" fill="none" xmlns="http://www.w3.org/2000/svg">
<g clip-path="url(#clip0_249_266)">
<circle cx="17.5" cy="17.5" r="17.5" fill="#A09EB0"/>
<path d="M20.1204 14.8795C22.3376 17.099 22.3071 20.6574 20.1337 22.8428C20.1297 22.8473 20.1248 22.8521 20.1204 22.8566L17.6266 25.3503C15.4272 27.5498 11.8487 27.5495 9.6496 25.3503C7.45013 23.1512 7.45013 19.5724 9.6496 17.3733L11.0266 15.9963C11.3917 15.6311 12.0206 15.8738 12.0394 16.3899C12.0635 17.0475 12.1814 17.7083 12.399 18.3463C12.4727 18.5624 12.4201 18.8013 12.2587 18.9628L11.773 19.4484C10.733 20.4885 10.7004 22.1819 11.7301 23.2321C12.7701 24.2926 14.4794 24.299 15.5274 23.251L18.0211 20.7576C19.0673 19.7115 19.0629 18.0206 18.0211 16.9788C17.8838 16.8417 17.7454 16.7352 17.6374 16.6608C17.5609 16.6083 17.4978 16.5387 17.453 16.4575C17.4083 16.3762 17.3831 16.2857 17.3796 16.193C17.3649 15.8009 17.5038 15.3968 17.8137 15.0869L18.595 14.3056C18.7998 14.1007 19.1213 14.0755 19.3588 14.2413C19.6309 14.4313 19.8857 14.6449 20.1204 14.8795ZM25.3504 9.64925C23.1513 7.45007 19.5728 7.44978 17.3734 9.64925L14.8796 12.143C14.8752 12.1475 14.8703 12.1523 14.8663 12.1567C12.6929 14.3422 12.6624 17.9006 14.8796 20.12C15.1142 20.3547 15.3691 20.5682 15.6411 20.7582C15.8787 20.924 16.2002 20.8988 16.405 20.6939L17.1863 19.9126C17.4962 19.6027 17.6351 19.1986 17.6204 18.8065C17.6168 18.7138 17.5917 18.6233 17.5469 18.5421C17.5022 18.4608 17.439 18.3912 17.3626 18.3387C17.2545 18.2643 17.1162 18.1578 16.9789 18.0207C15.9371 16.9789 15.9327 15.288 16.9789 14.2419L19.4726 11.7485C20.5205 10.7006 22.2298 10.7069 23.2698 11.7674C24.2996 12.8176 24.267 14.5111 23.227 15.5511L22.7413 16.0367C22.5799 16.1982 22.5272 16.4371 22.6009 16.6532C22.8185 17.2913 22.9365 17.952 22.9605 18.6096C22.9794 19.1257 23.6082 19.3684 23.9734 19.0032L25.3504 17.6262C27.5499 15.4272 27.5499 11.8484 25.3504 9.64925Z" fill="white"/>
</g>
<defs>
<clipPath id="clip0_249_266">
<rect width="35" height="35" fill="white"/>
</clipPath>
</defs>
</svg>
