<svg width="35" height="35" viewBox="0 0 35 35" fill="none" xmlns="http://www.w3.org/2000/svg">
<g clip-path="url(#clip0_249_262)">
<circle cx="17.5" cy="17.5" r="17.5" fill="#A09EB0"/>
<path fill-rule="evenodd" clip-rule="evenodd" d="M24.1355 11.1026C24.3568 11.0118 24.5991 10.9804 24.837 11.0119C25.0749 11.0433 25.2999 11.1364 25.4884 11.2814C25.677 11.4265 25.8222 11.6182 25.9091 11.8365C25.9959 12.0549 26.0212 12.292 25.9822 12.5231L23.951 24.5415C23.754 25.7008 22.45 26.3656 21.3601 25.7881C20.4484 25.305 19.0943 24.5607 17.8763 23.7841C17.2673 23.3953 15.4018 22.1504 15.6311 21.2645C15.8281 20.5071 18.9627 17.6609 20.7538 15.9687C21.4568 15.3038 21.1362 14.9203 20.306 15.5319C18.2435 17.0502 14.9344 19.3592 13.84 20.0092C12.8745 20.5823 12.3712 20.6801 11.7694 20.5823C10.6714 20.404 9.65313 20.128 8.82204 19.7916C7.69899 19.3373 7.75362 17.8312 8.82114 17.3927L24.1355 11.1026Z" fill="white"/>
</g>
<defs>
<clipPath id="clip0_249_262">
<rect width="35" height="35" fill="white"/>
</clipPath>
</defs>
</svg>
