<svg width="25" height="25" viewBox="0 0 25 25" fill="none" xmlns="http://www.w3.org/2000/svg">
<path d="M25 12.5C25 18.5406 19.4031 23.4375 12.5 23.4375C11.262 23.4392 10.029 23.2784 8.83281 22.9594C7.92031 23.4219 5.825 24.3094 2.3 24.8875C1.9875 24.9375 1.75 24.6125 1.87344 24.3219C2.42656 23.0156 2.92656 21.275 3.07656 19.6875C1.1625 17.7656 0 15.25 0 12.5C0 6.45937 5.59687 1.5625 12.5 1.5625C19.4031 1.5625 25 6.45937 25 12.5ZM7.03125 7.8125C6.82405 7.8125 6.62534 7.89481 6.47882 8.04132C6.33231 8.18784 6.25 8.38655 6.25 8.59375C6.25 8.80095 6.33231 8.99966 6.47882 9.14618C6.62534 9.29269 6.82405 9.375 7.03125 9.375H17.9688C18.176 9.375 18.3747 9.29269 18.5212 9.14618C18.6677 8.99966 18.75 8.80095 18.75 8.59375C18.75 8.38655 18.6677 8.18784 18.5212 8.04132C18.3747 7.89481 18.176 7.8125 17.9688 7.8125H7.03125ZM7.03125 11.7188C6.82405 11.7188 6.62534 11.8011 6.47882 11.9476C6.33231 12.0941 6.25 12.2928 6.25 12.5C6.25 12.7072 6.33231 12.9059 6.47882 13.0524C6.62534 13.1989 6.82405 13.2812 7.03125 13.2812H17.9688C18.176 13.2812 18.3747 13.1989 18.5212 13.0524C18.6677 12.9059 18.75 12.7072 18.75 12.5C18.75 12.2928 18.6677 12.0941 18.5212 11.9476C18.3747 11.8011 18.176 11.7188 17.9688 11.7188H7.03125ZM7.03125 15.625C6.82405 15.625 6.62534 15.7073 6.47882 15.8538C6.33231 16.0003 6.25 16.199 6.25 16.4062C6.25 16.6135 6.33231 16.8122 6.47882 16.9587C6.62534 17.1052 6.82405 17.1875 7.03125 17.1875H13.2812C13.4885 17.1875 13.6872 17.1052 13.8337 16.9587C13.9802 16.8122 14.0625 16.6135 14.0625 16.4062C14.0625 16.199 13.9802 16.0003 13.8337 15.8538C13.6872 15.7073 13.4885 15.625 13.2812 15.625H7.03125Z" fill="#151423"/>
</svg>
