<svg width="25" height="27" viewBox="0 0 25 27" fill="none" xmlns="http://www.w3.org/2000/svg">
<g clip-path="url(#clip0_271_580)">
<path d="M23.9583 0H5.20833C3.827 0 2.50224 0.526784 1.52549 1.46447C0.548733 2.40215 0 3.67392 0 5V14C0.00342756 14.7946 0.333768 15.5558 0.919078 16.1177C1.50439 16.6796 2.29725 16.9967 3.125 17H9.21875L8.34635 22.8625C8.33487 22.9074 8.33048 22.9538 8.33333 23C8.33333 24.0609 8.77232 25.0783 9.55372 25.8284C10.3351 26.5786 11.3949 27 12.5 27C13.6051 27 14.6649 26.5786 15.4463 25.8284C16.2277 25.0783 16.6667 24.0609 16.6667 23C16.6695 22.9538 16.6651 22.9074 16.6536 22.8625L15.7812 17H21.875C22.7027 16.9967 23.4956 16.6796 24.0809 16.1177C24.6662 15.5558 24.9966 14.7946 25 14V1C25 0.734784 24.8903 0.48043 24.6949 0.292893C24.4996 0.105357 24.2346 0 23.9583 0ZM22.9167 10H2.08333V5C2.08676 4.20536 2.4171 3.44421 3.00241 2.88232C3.58772 2.32042 4.38059 2.00329 5.20833 2H18.75V7C18.75 7.26522 18.8597 7.51957 19.0551 7.70711C19.2504 7.89464 19.5154 8 19.7917 8C20.0679 8 20.3329 7.89464 20.5282 7.70711C20.7236 7.51957 20.8333 7.26522 20.8333 7V2H22.9167V10Z" fill="#4C4D4E"/>
</g>
<defs>
<clipPath id="clip0_271_580">
<rect width="25" height="27" fill="white"/>
</clipPath>
</defs>
</svg>
