<svg width="21" height="21" viewBox="0 0 21 21" fill="none" xmlns="http://www.w3.org/2000/svg">
<path d="M13.3778 8.1C15.4 8.1 16.6444 5.25 16.6444 3.45C16.6444 1.95 15.8667 0.15 14.3111 0.15C12.2889 0.15 11.0444 3 11.0444 4.8C11.0444 6.3 11.8222 8.1 13.3778 8.1ZM7.46667 8.1C9.02222 8.1 9.8 6.3 9.8 4.8C9.8 2.85 8.55556 0 6.53333 0C4.97778 0 4.2 1.8 4.2 3.3C4.04445 5.25 5.28889 8.1 7.46667 8.1ZM18.9778 6.6C16.9556 6.6 15.5556 9.3 15.5556 11.25C15.5556 12.6 16.1778 13.95 17.5778 13.95C19.6 13.95 21 11.25 21 9.3C21 7.95 20.2222 6.6 18.9778 6.6ZM5.44445 11.25C5.44445 9.3 3.88889 6.6 2.02222 6.6C0.622222 6.6 0 7.95 0 9.3C0 11.25 1.55556 13.95 3.42222 13.95C4.82222 13.95 5.44445 12.6 5.44445 11.25ZM10.4222 10.95C7.31111 10.95 3.11111 15.75 3.11111 19.05C3.11111 20.55 4.2 21 5.44445 21C7.31111 21 8.71111 19.8 10.4222 19.8C11.9778 19.8 13.3778 21 15.0889 21C16.3333 21 17.7333 20.7 17.7333 19.05C17.7333 15.75 13.5333 10.95 10.4222 10.95Z" fill="#595B5E"/>
</svg>
