<svg width="25" height="25" viewBox="0 0 25 25" fill="none" xmlns="http://www.w3.org/2000/svg">
<path fill-rule="evenodd" clip-rule="evenodd" d="M20.1389 2.08333H4.86111C3.32699 2.08333 2.08333 3.32699 2.08333 4.86111V20.1389C2.08333 21.673 3.32699 22.9167 4.86111 22.9167H20.1389C21.673 22.9167 22.9167 21.673 22.9167 20.1389V4.86111C22.9167 3.32699 21.673 2.08333 20.1389 2.08333ZM4.86111 0C2.17639 0 0 2.17639 0 4.86111V20.1389C0 22.8236 2.17639 25 4.86111 25H20.1389C22.8236 25 25 22.8236 25 20.1389V4.86111C25 2.17639 22.8236 0 20.1389 0H4.86111Z" fill="#595B5E"/>
<path fill-rule="evenodd" clip-rule="evenodd" d="M7.63889 9.02778C8.40595 9.02778 9.02778 8.40595 9.02778 7.63889C9.02778 6.87183 8.40595 6.25 7.63889 6.25C6.87183 6.25 6.25 6.87183 6.25 7.63889C6.25 8.40595 6.87183 9.02778 7.63889 9.02778ZM7.63889 11.1111C9.55654 11.1111 11.1111 9.55654 11.1111 7.63889C11.1111 5.72123 9.55654 4.16667 7.63889 4.16667C5.72123 4.16667 4.16667 5.72123 4.16667 7.63889C4.16667 9.55654 5.72123 11.1111 7.63889 11.1111Z" fill="#595B5E"/>
<path fill-rule="evenodd" clip-rule="evenodd" d="M17.3611 18.75C18.1282 18.75 18.75 18.1282 18.75 17.3611C18.75 16.594 18.1282 15.9722 17.3611 15.9722C16.594 15.9722 15.9722 16.594 15.9722 17.3611C15.9722 18.1282 16.594 18.75 17.3611 18.75ZM17.3611 20.8333C19.2788 20.8333 20.8333 19.2788 20.8333 17.3611C20.8333 15.4435 19.2788 13.8889 17.3611 13.8889C15.4435 13.8889 13.8889 15.4435 13.8889 17.3611C13.8889 19.2788 15.4435 20.8333 17.3611 20.8333Z" fill="#595B5E"/>
<path fill-rule="evenodd" clip-rule="evenodd" d="M17.3611 9.72222C18.5117 9.72222 19.4444 8.78948 19.4444 7.63889C19.4444 6.4883 18.5117 5.55556 17.3611 5.55556C16.2105 5.55556 15.2778 6.4883 15.2778 7.63889C15.2778 8.78948 16.2105 9.72222 17.3611 9.72222ZM17.3611 11.8056C19.6623 11.8056 21.5278 9.94007 21.5278 7.63889C21.5278 5.3377 19.6623 3.47222 17.3611 3.47222C15.0599 3.47222 13.1944 5.3377 13.1944 7.63889C13.1944 9.94007 15.0599 11.8056 17.3611 11.8056Z" fill="#595B5E"/>
<path fill-rule="evenodd" clip-rule="evenodd" d="M7.63889 19.4444C8.78948 19.4444 9.72222 18.5117 9.72222 17.3611C9.72222 16.2105 8.78948 15.2778 7.63889 15.2778C6.4883 15.2778 5.55556 16.2105 5.55556 17.3611C5.55556 18.5117 6.4883 19.4444 7.63889 19.4444ZM7.63889 21.5278C9.94007 21.5278 11.8056 19.6623 11.8056 17.3611C11.8056 15.0599 9.94007 13.1944 7.63889 13.1944C5.3377 13.1944 3.47222 15.0599 3.47222 17.3611C3.47222 19.6623 5.3377 21.5278 7.63889 21.5278Z" fill="#595B5E"/>
</svg>
