<svg width="20" height="28" viewBox="0 0 20 28" fill="none" xmlns="http://www.w3.org/2000/svg">
<path fill-rule="evenodd" clip-rule="evenodd" d="M16.5 2.5H3.5C2.94771 2.5 2.5 2.9643 2.5 3.53704V24.5C2.5 25.0727 2.94772 25.537 3.5 25.537H16.5C17.0523 25.537 17.5 25.0727 17.5 24.5V3.53704C17.5 2.9643 17.0523 2.5 16.5 2.5ZM3 0C1.34315 0 0 1.39289 0 3.11111V24.8889C0 26.6071 1.34315 28 3 28H17C18.6569 28 20 26.6071 20 24.8889V3.11111C20 1.39289 18.6569 0 17 0H3Z" fill="#595B5E"/>
<rect x="15" y="12" width="6" height="2" rx="1" transform="rotate(90 15 12)" fill="#595B5E"/>
</svg>
