<svg width="25" height="20" viewBox="0 0 25 20" fill="none" xmlns="http://www.w3.org/2000/svg">
<g clip-path="url(#clip0_277_629)">
<path d="M23.125 0H1.875C1.37772 0 0.900805 0.197544 0.549175 0.549175C0.197544 0.900805 0 1.37772 0 1.875V14.125C0 14.6223 0.197544 15.0992 0.549175 15.4508C0.900805 15.8025 1.37772 16 1.875 16H11.25V17.8169H4.375C4.20924 17.8169 4.05027 17.8828 3.93306 18C3.81585 18.1172 3.75 18.2762 3.75 18.4419V19.375C3.75 19.5408 3.81585 19.6997 3.93306 19.8169C4.05027 19.9342 4.20924 20 4.375 20H20.625C20.7908 20 20.9497 19.9342 21.0669 19.8169C21.1842 19.6997 21.25 19.5408 21.25 19.375V18.4419C21.25 18.2762 21.1842 18.1172 21.0669 18C20.9497 17.8828 20.7908 17.8169 20.625 17.8169H13.75V16H18.4375H23.125C23.6223 16 24.0992 15.8025 24.4508 15.4508C24.8025 15.0992 25 14.6223 25 14.125V1.875C25 1.37772 24.8025 0.900805 24.4508 0.549175C24.0992 0.197544 23.6223 0 23.125 0ZM23 14H2V2H23V14Z" fill="#595B5E"/>
</g>
<defs>
<clipPath id="clip0_277_629">
<rect width="25" height="20" fill="white"/>
</clipPath>
</defs>
</svg>
