<svg width="25" height="25" viewBox="0 0 25 25" fill="none" xmlns="http://www.w3.org/2000/svg">
<g clip-path="url(#clip0_277_838)">
<path fill-rule="evenodd" clip-rule="evenodd" d="M17.5485 0.318362C17.973 0.742845 17.973 1.43107 17.5485 1.85555L13.1705 6.23353L18.7665 11.8295L23.1444 7.45151C23.5689 7.02703 24.2572 7.02703 24.6816 7.45151C25.1061 7.876 25.1061 8.56422 24.6816 8.9887L20.3037 13.3667L21.8284 14.8914C22.0322 15.0952 22.1467 15.3717 22.1467 15.66C22.1467 15.9483 22.0322 16.2247 21.8284 16.4286L18.9054 19.3516C18.0428 20.2466 17.0109 20.9611 15.8696 21.4536C14.7249 21.9476 13.4932 22.2084 12.2466 22.2206C10.9999 22.2328 9.76338 21.9963 8.60924 21.5249C7.79206 21.1911 7.02783 20.7442 6.33833 20.1989L1.85555 24.6816C1.43107 25.1061 0.742845 25.1061 0.318362 24.6816C-0.106121 24.2572 -0.106121 23.5689 0.318362 23.1444L4.80114 18.6617C4.25577 17.9722 3.80895 17.2079 3.47515 16.3908C3.00371 15.2366 2.76718 14.0001 2.77941 12.7534C2.79164 11.5068 3.05237 10.2751 3.54636 9.1304C4.0389 7.9891 4.75346 6.95716 5.64844 6.09461L8.57142 3.17162C8.9959 2.74714 9.68412 2.74714 10.1086 3.17162L11.6333 4.69634L16.0113 0.318362C16.4358 -0.106121 17.124 -0.106121 17.5485 0.318362ZM9.34001 5.47741L7.17831 7.63911L7.16308 7.65404C6.47278 8.31778 5.92178 9.11253 5.54234 9.99178C5.16289 10.871 4.96261 11.8171 4.95322 12.7747C4.94382 13.7323 5.12551 14.6822 5.48764 15.5687C5.84977 16.4552 6.38507 17.2606 7.06222 17.9378C7.73937 18.6149 8.54477 19.1502 9.4313 19.5124C10.3178 19.8745 11.2677 20.0562 12.2253 20.0468C13.1829 20.0374 14.129 19.8371 15.0082 19.4577C15.8875 19.0782 16.6822 18.5272 17.346 17.8369L17.3609 17.8217L19.5226 15.66L9.34001 5.47741Z" fill="#595B5E"/>
</g>
<defs>
<clipPath id="clip0_277_838">
<rect width="25" height="25" fill="white"/>
</clipPath>
</defs>
</svg>
