<svg width="25" height="25" viewBox="0 0 25 25" fill="none" xmlns="http://www.w3.org/2000/svg">
<path fill-rule="evenodd" clip-rule="evenodd" d="M4.33333 2C3.97511 2 3.6344 2.14041 3.38542 2.38583C3.13693 2.63077 3 2.9599 3 3.3V21.7C3 22.0401 3.13693 22.3692 3.38542 22.6142C3.6344 22.8596 3.97511 23 4.33333 23H20.6667C21.0249 23 21.3656 22.8596 21.6146 22.6142C21.8631 22.3692 22 22.0401 22 21.7V3.3C22 2.9599 21.8631 2.63077 21.6146 2.38583C21.3656 2.14041 21.0249 2 20.6667 2H4.33333ZM1.98142 0.961479C2.60761 0.344233 3.45388 0 4.33333 0H20.6667C21.5461 0 22.3924 0.344233 23.0186 0.961479C23.6453 1.5792 24 2.4201 24 3.3V21.7C24 22.5799 23.6453 23.4208 23.0186 24.0385C22.3924 24.6558 21.5461 25 20.6667 25H4.33333C3.45388 25 2.60761 24.6558 1.98142 24.0385C1.35474 23.4208 1 22.5799 1 21.7V3.3C1 2.4201 1.35474 1.5792 1.98142 0.961479Z" fill="#595B5E"/>
<path fill-rule="evenodd" clip-rule="evenodd" d="M7.37348 8.41514C8.73311 7.0555 10.5772 6.29166 12.5 6.29166C14.4228 6.29166 16.2669 7.0555 17.6265 8.41514C18.9862 9.77478 19.75 11.6188 19.75 13.5417C19.75 15.4645 18.9862 17.3085 17.6265 18.6682C16.2669 20.0278 14.4228 20.7917 12.5 20.7917C10.5772 20.7917 8.73312 20.0278 7.37348 18.6682C6.01384 17.3085 5.25 15.4645 5.25 13.5417C5.25 11.6188 6.01384 9.77478 7.37348 8.41514ZM12.5 18.7917C13.8924 18.7917 15.2277 18.2385 16.2123 17.254C17.1969 16.2694 17.75 14.9341 17.75 13.5417C17.75 12.1493 17.1969 10.8139 16.2123 9.82935C15.2277 8.84479 13.8924 8.29166 12.5 8.29166C11.1076 8.29166 9.77226 8.84479 8.78769 9.82935C7.80312 10.8139 7.25 12.1493 7.25 13.5417C7.25 14.9341 7.80312 16.2694 8.78769 17.254C9.77226 18.2385 11.1076 18.7917 12.5 18.7917Z" fill="#595B5E"/>
<path fill-rule="evenodd" clip-rule="evenodd" d="M9.375 12.5417C9.92728 12.5417 10.375 12.9894 10.375 13.5417C10.375 14.1052 10.5989 14.6458 10.9974 15.0443C11.3959 15.4428 11.9364 15.6667 12.5 15.6667C13.0523 15.6667 13.5 16.1144 13.5 16.6667C13.5 17.2189 13.0523 17.6667 12.5 17.6667C11.406 17.6667 10.3568 17.2321 9.58318 16.4585C8.8096 15.6849 8.375 14.6357 8.375 13.5417C8.375 12.9894 8.82272 12.5417 9.375 12.5417Z" fill="#595B5E"/>
<circle cx="19.5" cy="4.5" r="1.5" fill="#595B5E"/>
</svg>
