<svg width="35" height="35" viewBox="0 0 35 35" fill="none" xmlns="http://www.w3.org/2000/svg">
<g clip-path="url(#clip0_249_260)">
<circle cx="17.5" cy="17.5" r="17.5" fill="#A09EB0"/>
<path fill-rule="evenodd" clip-rule="evenodd" d="M25.6922 20.4118C25.6922 20.4118 27.3901 22.0878 27.8101 22.8634C27.8182 22.8746 27.8246 22.887 27.829 22.9001C28.0001 23.1866 28.0421 23.4112 27.9581 23.5771C27.8164 23.851 27.3365 23.9885 27.1738 24H24.1729C23.9639 24 23.5292 23.9454 23 23.5802C22.5958 23.2979 22.1936 22.833 21.8041 22.3785C21.2224 21.7037 20.7194 21.1181 20.2102 21.1181C20.1458 21.1179 20.082 21.1286 20.0212 21.1496C19.6358 21.2713 19.1465 21.8202 19.1465 23.2821C19.1465 23.7397 18.7853 24 18.5323 24H17.1578C16.6895 24 14.2514 23.8363 12.0895 21.5578C9.4403 18.7682 7.06099 13.1723 7.03789 13.123C6.88984 12.7609 7.20064 12.5636 7.53665 12.5636H10.5669C10.9733 12.5636 11.1056 12.8092 11.198 13.0296C11.3051 13.2825 11.702 14.2942 12.353 15.4308C13.4072 17.28 14.0551 18.0325 14.5727 18.0325C14.67 18.0328 14.7656 18.0075 14.8499 17.9591C15.5261 17.5875 15.4001 15.1737 15.3686 14.6762C15.3686 14.5797 15.3676 13.5984 15.0211 13.124C14.7733 12.784 14.3512 12.6517 14.096 12.6035C14.1643 12.5048 14.3092 12.3537 14.495 12.2645C14.9581 12.0336 15.7949 12 16.6255 12H17.0864C17.9873 12.0126 18.2204 12.0703 18.548 12.1532C19.2074 12.3107 19.22 12.7378 19.1623 14.1924C19.1455 14.608 19.1276 15.0761 19.1276 15.6271C19.1276 15.7446 19.1224 15.8758 19.1224 16.0091C19.1024 16.7553 19.0762 17.5959 19.6033 17.9412C19.6716 17.9838 19.7506 18.0063 19.8311 18.0063C20.0138 18.0063 20.5609 18.0063 22.0445 15.4613C22.6955 14.3372 23.1995 13.0117 23.2342 12.912C23.2636 12.8564 23.3518 12.7 23.4589 12.637C23.535 12.5965 23.6204 12.5763 23.7067 12.5783H27.2714C27.6599 12.5783 27.9235 12.637 27.9749 12.784C28.061 13.0222 27.9581 13.7495 26.3306 15.9493C26.0566 16.3155 25.8161 16.6325 25.6051 16.9096C24.1298 18.8448 24.1298 18.9425 25.6922 20.4118Z" fill="white"/>
</g>
<defs>
<clipPath id="clip0_249_260">
<rect width="35" height="35" fill="white"/>
</clipPath>
</defs>
</svg>
