<svg width="25" height="15" viewBox="0 0 25 15" fill="none" xmlns="http://www.w3.org/2000/svg">
<path fill-rule="evenodd" clip-rule="evenodd" d="M21.4286 3.14932H3.57143V11.0905C3.57143 12.1701 4.37092 13.0452 5.35714 13.0452H19.6429C20.6291 13.0452 21.4286 12.1701 21.4286 11.0905V3.14932ZM1.78571 1.19457V11.0905C1.78571 13.2497 3.3847 15 5.35714 15H19.6429C21.6153 15 23.2143 13.2497 23.2143 11.0905V1.19457H1.78571Z" fill="#595B5E"/>
<path fill-rule="evenodd" clip-rule="evenodd" d="M0 1.68326C0 1.14347 0.399746 0 0.892857 0H24.1071C24.6003 0 25 1.14347 25 1.68326C25 2.22305 24.6003 2.66063 24.1071 2.66063H0.892857C0.399746 2.66063 0 2.22305 0 1.68326Z" fill="#595B5E"/>
<path fill-rule="evenodd" clip-rule="evenodd" d="M5.35714 13.5339L5.35714 2.66063L7.14286 2.66063V13.5339H5.35714Z" fill="#595B5E"/>
<path fill-rule="evenodd" clip-rule="evenodd" d="M8.48214 13.5339V2.66063L10.2679 2.66063V13.5339H8.48214Z" fill="#595B5E"/>
<path fill-rule="evenodd" clip-rule="evenodd" d="M11.6071 13.5339V2.66063L13.3929 2.66063V13.5339H11.6071Z" fill="#595B5E"/>
<path fill-rule="evenodd" clip-rule="evenodd" d="M14.7321 13.5339V2.66063L16.5179 2.66063V13.5339H14.7321Z" fill="#595B5E"/>
<path fill-rule="evenodd" clip-rule="evenodd" d="M17.8571 13.5339V2.66063L19.6429 2.66063V13.5339H17.8571Z" fill="#595B5E"/>
</svg>
