<svg width="20" height="25" viewBox="0 0 20 25" fill="none" xmlns="http://www.w3.org/2000/svg">
<path fill-rule="evenodd" clip-rule="evenodd" d="M-1.09278e-07 1.25C-4.89256e-08 0.559644 0.559644 4.89256e-08 1.25 1.09278e-07L18.75 1.63918e-06C19.4404 1.69953e-06 20 0.559646 20 1.25C20 1.94036 19.4404 2.5 18.75 2.5L1.25 2.5C0.559644 2.5 -1.69631e-07 1.94036 -1.09278e-07 1.25Z" fill="#595B5E"/>
<path fill-rule="evenodd" clip-rule="evenodd" d="M5 10.0858L9.32998 5.29289C9.7012 4.90237 10.3031 4.90237 10.6743 5.29289L15.0002 10.0858C15.3715 10.4763 15.3715 11.1095 15.0002 11.5C14.629 11.8905 14.0271 11.8905 13.6559 11.5L10.9527 8.41421L10.9527 24C10.9527 24.5523 10.5271 25 10.0021 25C9.47715 25 9.05156 24.5523 9.05156 24L9.05156 8.41421L6.34432 11.5C5.97309 11.8905 5.37122 11.8905 5 11.5C4.62878 11.1095 4.62878 10.4763 5 10.0858Z" fill="#595B5E"/>
</svg>
