<svg width="20" height="28" viewBox="0 0 20 28" fill="none" xmlns="http://www.w3.org/2000/svg">
<path fill-rule="evenodd" clip-rule="evenodd" d="M17 2H3C2.44772 2 2 2.44772 2 3V24C2 24.5523 2.44772 25 3 25H17C17.5523 25 18 24.5523 18 24V3C18 2.44771 17.5523 2 17 2ZM3 0C1.34315 0 0 1.34315 0 3V24C0 25.6569 1.34315 27 3 27H17C18.6569 27 20 25.6569 20 24V3C20 1.34315 18.6569 0 17 0H3Z" fill="#595B5E"/>
<path d="M3 27H7V27C7 27.5523 6.55228 28 6 28H4C3.44772 28 3 27.5523 3 27V27Z" fill="#595B5E"/>
<rect x="4" y="6" width="4" height="2" rx="1" fill="#595B5E"/>
<rect x="4" y="14" width="4" height="2" rx="1" fill="#595B5E"/>
<path d="M13 27H17V27C17 27.5523 16.5523 28 16 28H14C13.4477 28 13 27.5523 13 27V27Z" fill="#595B5E"/>
<rect x="2" y="10" width="16" height="2" fill="#595B5E"/>
</svg>
