<svg width="25" height="25" viewBox="0 0 25 25" fill="none" xmlns="http://www.w3.org/2000/svg">
<g clip-path="url(#clip0_277_767)">
<path d="M14.5622 24.4578C14.417 24.27 14.3275 24.0452 14.3038 23.8091C14.28 23.5729 14.323 23.3348 14.4278 23.1219C14.7028 22.5875 14.8106 21.9766 14.7403 21.375C14.6827 20.9458 14.5409 20.5321 14.3231 20.1578C14.1081 19.7884 13.8206 19.4663 13.4778 19.2109C12.3096 18.333 11.4898 17.0698 11.1637 15.6453C8.49496 19.1437 9.5184 21.1297 10.7965 22.8797C10.9464 23.0848 11.0253 23.3332 11.0214 23.5873C11.0174 23.8413 10.9308 24.0871 10.7747 24.2875C10.6155 24.4903 10.402 24.6436 10.159 24.7297C9.91885 24.814 9.65931 24.8265 9.41215 24.7656C7.68559 24.3437 6.06059 23.5406 4.95903 22.2609C4.3346 21.5501 3.85386 20.725 3.5434 19.8312C3.2294 18.9299 3.08994 17.977 3.13246 17.0234C3.13246 17.0234 2.92465 13.175 7.56528 9.40469C7.56528 9.40469 13.0497 4.75156 11.1465 1.31094C11.0764 1.14169 11.0556 0.956052 11.0866 0.775492C11.1176 0.594931 11.199 0.426827 11.3215 0.290623C11.4406 0.15708 11.5979 0.0634081 11.772 0.0223182C11.9462 -0.0187716 12.1287 -0.00528941 12.295 0.0609353L12.5231 0.15156C14.5888 1.45735 16.2034 3.36644 17.1481 5.62031C18.0543 7.82812 18.0481 10.4016 17.4356 12.6937C17.9434 12.2375 18.3668 11.6922 18.6872 11.0797L18.7325 10.9797C19.0418 10.2344 20.0153 10.4719 20.3809 10.9594C20.5153 11.1734 23.9622 16.1828 22.1106 20.4094C21.4336 21.6899 20.4448 22.7792 19.2356 23.5766C18.2209 24.2499 17.0871 24.7235 15.895 24.9719C15.6486 25.0238 15.3924 25.0031 15.1575 24.9125C14.9204 24.8203 14.7141 24.6633 14.5622 24.4594V24.4578ZM11.8028 12.3312C11.9487 12.2552 12.1177 12.2365 12.2767 12.2787C12.4357 12.3209 12.5732 12.421 12.6622 12.5594C12.7247 12.6516 12.7653 12.7562 12.7793 12.8687L12.8497 13.4141C12.8809 14.2125 12.8715 15.0469 13.1825 15.8141C13.5043 16.6016 14.0043 17.2984 14.6387 17.8422C15.456 18.3799 16.0886 19.1554 16.4512 20.0641C16.795 20.9453 16.8418 21.9234 16.5825 22.8344C17.376 22.5841 18.1136 22.1824 18.7543 21.6516L18.9153 21.5203C19.4403 21.0875 19.8731 20.5469 20.1856 19.9312C20.4997 19.3172 20.6887 18.6422 20.7387 17.9484C20.8403 16.3469 20.295 14.7391 19.4465 13.3047C19.059 13.8672 18.5247 14.3031 17.9075 14.5609C17.5215 14.725 17.1122 14.8266 16.695 14.8578C16.456 14.8732 16.2177 14.8189 16.009 14.7016C15.7971 14.5811 15.6233 14.4035 15.5075 14.1891C15.4116 14.0161 15.3568 13.8234 15.3473 13.6259C15.3378 13.4284 15.3739 13.2313 15.4528 13.05C16.0965 11.5312 16.2965 9.84687 16.0231 8.21094C15.6994 6.33927 14.803 4.61413 13.4575 3.27344C13.2137 6.71875 9.6809 9.92656 8.9559 10.6172C8.84352 10.7231 8.72675 10.8242 8.6059 10.9203C4.81528 13.9906 5.07465 16.7875 5.07465 16.9109C4.99937 18.022 5.24854 19.131 5.79184 20.1031C6.36215 21.1109 7.18246 21.9422 8.16684 22.5094C7.0309 20.0125 7.0309 17.0156 11.2231 12.7187L11.8043 12.3281L11.8028 12.3312Z" fill="#595B5E"/>
</g>
<defs>
<clipPath id="clip0_277_767">
<rect width="25" height="25" fill="white"/>
</clipPath>
</defs>
</svg>
