<svg width="25" height="22" viewBox="0 0 25 22" fill="none" xmlns="http://www.w3.org/2000/svg">
<path fill-rule="evenodd" clip-rule="evenodd" d="M6.92974 0.0289041C4.57574 0.514391 3.76244 3.24529 5.45373 4.98502C5.82388 5.36572 6.19889 6.04551 6.28735 6.49579C6.37581 6.94607 6.53211 7.5208 6.63431 7.77296C6.77716 8.12472 6.08066 8.76003 3.64879 10.4976C0.0234569 13.0874 -0.476085 13.8362 0.33492 15.466C0.839615 16.4798 2.10579 17.1596 3.05106 16.9238C3.56262 16.7964 3.6256 16.9134 3.6256 17.9938C3.6256 20.5618 5.46232 22.4134 7.48224 21.8818C8.00154 21.7451 9.26142 21.7487 10.4431 21.8903C11.6658 22.0366 13.3342 22.0366 14.5569 21.8903C15.7386 21.7487 16.9985 21.7451 17.5178 21.8818C19.5554 22.4181 21.3535 20.5656 21.3681 17.915C21.3735 16.9148 21.4425 16.7975 21.9489 16.9238C22.8942 17.1596 24.1604 16.4798 24.6651 15.466C25.4761 13.8362 24.9765 13.0874 21.3512 10.4976C18.9193 8.76003 18.2228 8.12472 18.3657 7.77296C18.4679 7.5208 18.6242 6.94607 18.7127 6.49579C18.8011 6.04551 19.1761 5.36572 19.5463 4.98502C21.4242 3.05344 20.1818 0.0280854 17.5109 0.0280854C16.9973 0.0280854 16.304 0.167537 15.9699 0.337826C15.517 0.568971 15.2084 0.568971 14.7555 0.337826C13.968 -0.0638815 11.0283 -0.0619713 10.2385 0.340828C9.90123 0.513027 9.49501 0.576885 9.33585 0.483008C8.78506 0.158531 7.48826 -0.0862592 6.92974 0.0289041ZM7.30934 2.67493C6.71189 3.64045 6.20204 3.72123 6.20204 2.85013C6.20204 2.23911 6.74996 1.72006 7.39465 1.72006C7.86184 1.72006 7.85526 1.79292 7.30934 2.67493ZM14.4841 2.11958C16.31 3.0196 17.3343 5.0336 16.8444 6.75996L16.6146 7.56992L16.0604 6.5048C15.2668 4.97984 14.183 4.3126 12.5 4.3126C10.8162 4.3126 9.73319 4.97984 8.93822 6.5078L8.38228 7.57592L8.14153 6.68955C7.6772 4.98229 8.71493 3.0499 10.6392 2.03771C11.458 1.60708 13.5343 1.65129 14.4841 2.11958ZM18.4544 2.04754C18.6434 2.22765 18.798 2.5887 18.798 2.85013C18.798 3.72123 18.2881 3.64045 17.6907 2.67493C17.1447 1.79292 17.1382 1.72006 17.6054 1.72006C17.8833 1.72006 18.2655 1.86742 18.4544 2.04754ZM13.469 6.12192C14.3124 6.48815 14.919 7.72547 14.6508 8.53162C14.2016 9.88001 12.6165 10.5508 11.3752 9.9174C10.5247 9.48349 10.0799 8.13591 10.4818 7.21106C11.0071 6.00212 12.1957 5.56875 13.469 6.12192ZM11.7451 7.31367C11.6461 7.55955 11.6973 7.88648 11.859 8.04067C12.3257 8.4855 13.2157 8.18558 13.2157 7.58357C13.2157 6.88958 12.0053 6.66717 11.7451 7.31367ZM8.58009 10.4602C10.955 12.2411 14.045 12.2411 16.4199 10.4602C16.8256 10.1559 17.2467 9.90703 17.3557 9.90703C17.6351 9.90703 22.881 13.6752 23.1247 14.0507C23.2349 14.221 23.2629 14.5155 23.1865 14.7051C22.9208 15.365 22.1562 15.3737 21.2653 14.7272C18.1564 12.4706 15.302 13.9391 15.3077 17.7922C15.3089 18.6335 15.3541 19.5062 15.4079 19.7314C15.4901 20.0752 15.0246 20.1407 12.5 20.1407C9.97538 20.1407 9.5099 20.0752 9.59206 19.7314C9.64588 19.5062 9.69111 18.6335 9.69226 17.7922C9.69769 14.0862 6.97669 12.5168 4.03583 14.5302C2.84351 15.3464 2.0952 15.4054 1.81351 14.7051C1.73707 14.5155 1.76513 14.221 1.87534 14.0507C2.11896 13.6752 7.36487 9.90703 7.64427 9.90703C7.75334 9.90703 8.17445 10.1559 8.58009 10.4602ZM7.58731 16.0601C8.35795 17.6724 7.75506 20.3727 6.65836 20.2215C5.80556 20.1039 5.30115 18.9806 5.4314 17.489C5.61032 15.439 6.88623 14.5932 7.58731 16.0601ZM19.2875 16.1837C20.0641 17.6522 19.4996 20.0616 18.3416 20.2215C17.2404 20.3735 16.6426 17.671 17.4184 16.0475C17.8438 15.1581 18.7814 15.2264 19.2875 16.1837Z" fill="#595B5E"/>
</svg>
