<svg width="25" height="25" viewBox="0 0 25 25" fill="none" xmlns="http://www.w3.org/2000/svg">
<g clip-path="url(#clip0_135_38)">
<path d="M1.38889 0H23.6111C23.9795 0 24.3327 0.146329 24.5932 0.406796C24.8537 0.667263 25 1.02053 25 1.38889V23.6111C25 23.9795 24.8537 24.3327 24.5932 24.5932C24.3327 24.8537 23.9795 25 23.6111 25H1.38889C1.02053 25 0.667263 24.8537 0.406796 24.5932C0.146329 24.3327 0 23.9795 0 23.6111V1.38889C0 1.02053 0.146329 0.667263 0.406796 0.406796C0.667263 0.146329 1.02053 0 1.38889 0ZM2.77778 2.77778V22.2222H22.2222V2.77778H2.77778ZM8.33333 5.55556H13.1944C14.4837 5.55556 15.7201 6.06771 16.6318 6.97934C17.5434 7.89098 18.0556 9.12742 18.0556 10.4167C18.0556 11.7059 17.5434 12.9424 16.6318 13.854C15.7201 14.7656 14.4837 15.2778 13.1944 15.2778H11.1111V19.4444H8.33333V5.55556ZM11.1111 8.33333V12.5H13.1944C13.747 12.5 14.2769 12.2805 14.6676 11.8898C15.0583 11.4991 15.2778 10.9692 15.2778 10.4167C15.2778 9.86413 15.0583 9.33423 14.6676 8.94353C14.2769 8.55283 13.747 8.33333 13.1944 8.33333H11.1111Z" fill="#4C4D4E"/>
</g>
<defs>
<clipPath id="clip0_135_38">
<rect width="25" height="25" fill="white"/>
</clipPath>
</defs>
</svg>
