<svg width="19" height="23" viewBox="0 0 19 23" fill="none" xmlns="http://www.w3.org/2000/svg">
<path d="M9.5 23C6.98646 23 4.77494 22.1359 2.86544 20.4076C0.955146 18.6785 0 16.3393 0 13.3898C0 11.5342 0.7125 9.52229 2.1375 7.35414C3.5625 5.18599 5.71979 2.84204 8.60938 0.322293C8.72812 0.224629 8.86667 0.146497 9.025 0.0878982C9.18333 0.0292994 9.34167 0 9.5 0C9.65833 0 9.81667 0.0292994 9.975 0.0878982C10.1333 0.146497 10.2719 0.224629 10.3906 0.322293C13.2802 2.84204 15.4375 5.18599 16.8625 7.35414C18.2875 9.52229 19 11.5342 19 13.3898C19 16.3393 18.0449 18.6785 16.1346 20.4076C14.2251 22.1359 12.0135 23 9.5 23ZM9.5 20.6561C11.499 20.6561 13.186 19.9822 14.5611 18.6344C15.937 17.2866 16.625 15.5384 16.625 13.3898C16.625 12.003 16.0411 10.4157 14.8734 8.62808C13.7057 6.84121 11.9146 4.85393 9.5 2.66624C7.08542 4.85393 5.29427 6.84121 4.12656 8.62808C2.95885 10.4157 2.375 12.003 2.375 13.3898C2.375 15.5384 3.06256 17.2866 4.43769 18.6344C5.8136 19.9822 7.50104 20.6561 9.5 20.6561ZM9.82656 19.4841C10.0641 19.4645 10.2671 19.372 10.4358 19.2063C10.6036 19.0399 10.6875 18.8395 10.6875 18.6051C10.6875 18.3316 10.5984 18.1121 10.4203 17.9464C10.2422 17.78 10.0146 17.7066 9.7375 17.7261C8.92604 17.7847 8.0651 17.5652 7.15469 17.0675C6.24427 16.569 5.67031 15.6654 5.43281 14.3567C5.39323 14.1418 5.28913 13.966 5.1205 13.8293C4.95267 13.6926 4.7599 13.6242 4.54219 13.6242C4.2651 13.6242 4.0375 13.7266 3.85938 13.9313C3.68125 14.1367 3.62187 14.3762 3.68125 14.6497C4.01771 16.4272 4.80938 17.6968 6.05625 18.4586C7.30313 19.2204 8.5599 19.5622 9.82656 19.4841V19.4841Z" fill="#595B5E"/>
</svg>
