<svg width="25" height="25" viewBox="0 0 25 25" fill="none" xmlns="http://www.w3.org/2000/svg">
<path d="M7.47808 1.33929L5.71717 4.05506L7.47808 6.79564H7.46568L4.99792 10.6399L2.85259 9.52381L4.6135 6.78323L2.85259 4.05506L5.33274 0.210814L7.47808 1.33929ZM14.9186 1.20288L13.1576 3.94345L14.9186 6.67163L14.9062 6.68403L12.4384 10.5159L10.2931 9.3998L12.054 6.67163L10.2931 3.94345L12.7732 0.0992069L14.9186 1.20288ZM22.421 1.20288L20.6353 3.94345L22.421 6.67163V6.68403L19.9409 10.5159L17.7707 9.3998L19.5317 6.67163L17.7707 3.94345L20.2509 0.0992069L22.421 1.20288ZM0.0996094 24.9008V14.9802C0.0996094 14.3224 0.360911 13.6915 0.826031 13.2264C1.29115 12.7613 1.92199 12.5 2.57977 12.5H22.421C23.0788 12.5 23.7097 12.7613 24.1748 13.2264C24.6399 13.6915 24.9012 14.3224 24.9012 14.9802V24.9008H22.421V22.4206H2.57977V24.9008H0.0996094ZM5.05993 14.9802C4.73104 14.9802 4.41562 15.1108 4.18306 15.3434C3.9505 15.5759 3.81985 15.8913 3.81985 16.2202V18.7004C3.81985 19.0293 3.9505 19.3447 4.18306 19.5773C4.41562 19.8098 4.73104 19.9405 5.05993 19.9405C5.38882 19.9405 5.70424 19.8098 5.9368 19.5773C6.16936 19.3447 6.30001 19.0293 6.30001 18.7004V16.2202C6.30001 15.8913 6.16936 15.5759 5.9368 15.3434C5.70424 15.1108 5.38882 14.9802 5.05993 14.9802ZM10.0202 14.9802C9.69135 14.9802 9.37594 15.1108 9.14338 15.3434C8.91082 15.5759 8.78016 15.8913 8.78016 16.2202V18.7004C8.78016 19.0293 8.91082 19.3447 9.14338 19.5773C9.37594 19.8098 9.69135 19.9405 10.0202 19.9405C10.3491 19.9405 10.6646 19.8098 10.8971 19.5773C11.1297 19.3447 11.2603 19.0293 11.2603 18.7004V16.2202C11.2603 15.8913 11.1297 15.5759 10.8971 15.3434C10.6646 15.1108 10.3491 14.9802 10.0202 14.9802ZM14.9806 14.9802C14.6517 14.9802 14.3363 15.1108 14.1037 15.3434C13.8711 15.5759 13.7405 15.8913 13.7405 16.2202V18.7004C13.7405 19.0293 13.8711 19.3447 14.1037 19.5773C14.3363 19.8098 14.6517 19.9405 14.9806 19.9405C15.3095 19.9405 15.6249 19.8098 15.8574 19.5773C16.09 19.3447 16.2206 19.0293 16.2206 18.7004V16.2202C16.2206 15.8913 16.09 15.5759 15.8574 15.3434C15.6249 15.1108 15.3095 14.9802 14.9806 14.9802ZM19.9409 14.9802C19.612 14.9802 19.2966 15.1108 19.064 15.3434C18.8314 15.5759 18.7008 15.8913 18.7008 16.2202V18.7004C18.7008 19.0293 18.8314 19.3447 19.064 19.5773C19.2966 19.8098 19.612 19.9405 19.9409 19.9405C20.2698 19.9405 20.5852 19.8098 20.8177 19.5773C21.0503 19.3447 21.181 19.0293 21.181 18.7004V16.2202C21.181 15.8913 21.0503 15.5759 20.8177 15.3434C20.5852 15.1108 20.2698 14.9802 19.9409 14.9802Z" fill="#4C4D4E"/>
</svg>
