<svg width="19" height="19" viewBox="0 0 19 19" fill="none" xmlns="http://www.w3.org/2000/svg">
<path d="M0 19V4.22222H4.22222V0H14.7778V8.44444H19V19H10.5556V14.7778H8.44444V19H0ZM2.11111 16.8889H4.22222V14.7778H2.11111V16.8889ZM2.11111 12.6667H4.22222V10.5556H2.11111V12.6667ZM2.11111 8.44444H4.22222V6.33333H2.11111V8.44444ZM6.33333 12.6667H8.44444V10.5556H6.33333V12.6667ZM6.33333 8.44444H8.44444V6.33333H6.33333V8.44444ZM6.33333 4.22222H8.44444V2.11111H6.33333V4.22222ZM10.5556 12.6667H12.6667V10.5556H10.5556V12.6667ZM10.5556 8.44444H12.6667V6.33333H10.5556V8.44444ZM10.5556 4.22222H12.6667V2.11111H10.5556V4.22222ZM14.7778 16.8889H16.8889V14.7778H14.7778V16.8889ZM14.7778 12.6667H16.8889V10.5556H14.7778V12.6667Z" fill="#595B5E"/>
</svg>
