<svg width="19" height="17" viewBox="0 0 19 17" fill="none" xmlns="http://www.w3.org/2000/svg">
<g clip-path="url(#clip0_247_122)">
<path d="M2.59091 17V9.03125L1.03636 10.2L0 8.84L2.59091 6.885V4.25H4.31818V5.58875L9.5 1.7L19 8.84L17.9636 10.1788L16.4091 9.03125V17H11.2273V11.05H7.77273V17H2.59091ZM2.59091 3.4C2.59091 2.69167 2.8428 2.08958 3.34659 1.59375C3.85038 1.09792 4.46212 0.85 5.18182 0.85C5.42652 0.85 5.63177 0.7684 5.79759 0.6052C5.96283 0.442567 6.04545 0.240833 6.04545 0H7.77273C7.77273 0.708333 7.52083 1.31042 7.01705 1.80625C6.51326 2.30208 5.90152 2.55 5.18182 2.55C4.93712 2.55 4.73186 2.63132 4.56605 2.79395C4.4008 2.95715 4.31818 3.15917 4.31818 3.4H2.59091Z" fill="#595B5E"/>
</g>
<defs>
<clipPath id="clip0_247_122">
<rect width="19" height="17" fill="white"/>
</clipPath>
</defs>
</svg>
