<svg width="19" height="19" viewBox="0 0 19 19" fill="none" xmlns="http://www.w3.org/2000/svg">
<g clip-path="url(#clip0_247_114)">
<path d="M9.49993 14.4687C9.71458 14.607 9.93607 14.7343 10.1635 14.8503V18.1268C10.1635 18.3028 10.0936 18.4716 9.96917 18.5961C9.84472 18.7205 9.67593 18.7904 9.49993 18.7904C9.32394 18.7904 9.15515 18.7205 9.0307 18.5961C8.90625 18.4716 8.83633 18.3028 8.83633 18.1268V14.8503C9.0638 14.7343 9.28528 14.607 9.49993 14.4687V14.4687ZM15.3148 4.07504C14.8347 2.92887 14.0266 1.95013 12.9921 1.26179C11.9575 0.573448 10.7426 0.206207 9.49993 0.206207C8.25729 0.206207 7.04237 0.573448 6.0078 1.26179C4.97323 1.95013 4.16516 2.92887 3.68511 4.07504C2.6522 4.5537 1.77686 5.31646 1.1614 6.27417C0.545936 7.23189 0.215771 8.34499 0.209492 9.4834C0.201197 12.7019 2.81413 15.3895 6.02431 15.4724C6.9984 15.4979 7.96389 15.2843 8.83633 14.8503V11.8973L5.21969 10.0972C5.0613 10.018 4.94085 9.87916 4.88484 9.71115C4.85711 9.62796 4.84604 9.54013 4.85226 9.45266C4.85847 9.36519 4.88186 9.2798 4.92107 9.20137C4.96029 9.12294 5.01457 9.053 5.08081 8.99555C5.14706 8.9381 5.22397 8.89425 5.30716 8.86652C5.47517 8.81052 5.65854 8.82355 5.81694 8.90275L8.83633 10.4207V6.18198C8.83633 6.00598 8.90625 5.83719 9.0307 5.71274C9.15515 5.58829 9.32394 5.51838 9.49993 5.51838C9.67593 5.51838 9.84472 5.58829 9.96917 5.71274C10.0936 5.83719 10.1635 6.00598 10.1635 6.18198V8.42993L13.1829 6.91194C13.3413 6.83274 13.5247 6.81971 13.6927 6.87571C13.8607 6.93172 13.9996 7.05217 14.0788 7.21056C14.158 7.36896 14.171 7.55234 14.115 7.72034C14.059 7.88835 13.9386 8.02723 13.7802 8.10643L10.1635 9.90645V14.8503C10.9885 15.2595 11.897 15.4725 12.8179 15.4724H12.9756C16.1857 15.3895 18.7987 12.7019 18.7904 9.4834C18.7841 8.34499 18.4539 7.23189 17.8385 6.27417C17.223 5.31646 16.3477 4.5537 15.3148 4.07504V4.07504Z" fill="#595B5E"/>
</g>
<defs>
<clipPath id="clip0_247_114">
<rect width="19" height="19" fill="white"/>
</clipPath>
</defs>
</svg>
