<svg width="25" height="18" viewBox="0 0 25 18" fill="none" xmlns="http://www.w3.org/2000/svg">
<g clip-path="url(#clip0_277_624)">
<path fill-rule="evenodd" clip-rule="evenodd" d="M0.656784 0.579248C1.06476 0.200836 1.60304 0 2.15 0H22.85C23.397 0 23.9352 0.200835 24.3432 0.579248C24.7537 0.960013 25 1.49324 25 2.06667V15.9333C25 16.5068 24.7537 17.04 24.3432 17.4208C23.9352 17.7992 23.397 18 22.85 18H2.15C1.60305 18 1.06476 17.7992 0.656784 17.4208C0.246272 17.04 0 16.5068 0 15.9333V2.06667C0 1.49324 0.246272 0.960012 0.656784 0.579248ZM2.15 2C2.08696 2 2.04023 2.02393 2.01687 2.04559C2.00603 2.05564 2.00191 2.06335 2.00063 2.06623C2.00031 2.06695 2.00011 2.06746 2 2.0678V15.9322C2.00011 15.9325 2.00031 15.9331 2.00063 15.9338C2.00191 15.9366 2.00603 15.9444 2.01687 15.9544C2.04023 15.9761 2.08696 16 2.15 16H22.85C22.913 16 22.9598 15.9761 22.9831 15.9544C22.994 15.9444 22.9981 15.9366 22.9994 15.9338C22.9997 15.9331 22.9999 15.9325 23 15.9322V2.0678C22.9999 2.06746 22.9997 2.06695 22.9994 2.06623C22.9981 2.06335 22.994 2.05564 22.9831 2.04559C22.9598 2.02393 22.913 2 22.85 2H2.15Z" fill="#595B5E"/>
<path fill-rule="evenodd" clip-rule="evenodd" d="M4 5C4 4.44772 4.44772 4 5 4H17C17.5523 4 18 4.44772 18 5V13C18 13.5523 17.5523 14 17 14H5C4.44772 14 4 13.5523 4 13V5ZM6 6V12H16V6H6Z" fill="#595B5E"/>
<path fill-rule="evenodd" clip-rule="evenodd" d="M20.75 7C20.3358 7 20 6.66421 20 6.25V4.75C20 4.33579 20.3358 4 20.75 4C21.1642 4 21.5 4.33579 21.5 4.75V6.25C21.5 6.66421 21.1642 7 20.75 7Z" fill="#595B5E"/>
<path fill-rule="evenodd" clip-rule="evenodd" d="M20.75 11C20.3358 11 20 10.6642 20 10.25V8.75C20 8.33579 20.3358 8 20.75 8C21.1642 8 21.5 8.33579 21.5 8.75V10.25C21.5 10.6642 21.1642 11 20.75 11Z" fill="#595B5E"/>
</g>
<defs>
<clipPath id="clip0_277_624">
<rect width="25" height="18" fill="white"/>
</clipPath>
</defs>
</svg>
