<svg width="18" height="19" viewBox="0 0 18 19" fill="none" xmlns="http://www.w3.org/2000/svg">
<g clip-path="url(#clip0_247_204)">
<path d="M12.15 12.8929L14.724 14.4219L14.049 15.5257L10.8 13.5714V9.04762H12.15V12.8929ZM18 12.6667C18 16.1681 15.183 19 11.7 19C10.6836 19.0008 9.68208 18.7544 8.78094 18.2817C7.87981 17.8091 7.10581 17.1242 6.525 16.2857C2.862 16.0957 0 14.5486 0 12.6667V9.95238C0 11.6533 2.322 13.0648 5.454 13.4629C5.427 13.2005 5.4 12.9381 5.4 12.6667C5.4 12.3229 5.436 11.9881 5.49 11.6533C2.34 11.2643 0 9.84381 0 8.14286V5.42857C0 7.31952 2.88 8.86667 6.543 9.04762C7.083 8.26952 7.776 7.63619 8.577 7.17476C8.136 7.21095 7.65 7.23809 7.2 7.23809C3.222 7.23809 0 5.61857 0 3.61905C0 1.61952 3.222 0 7.2 0C11.178 0 14.4 1.61952 14.4 3.61905C14.4 4.70476 13.437 5.6819 11.925 6.33333C12.6 6.36952 13.275 6.50524 13.896 6.74048C14.211 6.33333 14.4 5.88095 14.4 5.42857V6.94857C16.524 7.97095 18 10.1424 18 12.6667ZM16.2 12.6667C16.2 10.1695 14.184 8.14286 11.7 8.14286C9.216 8.14286 7.2 10.1695 7.2 12.6667C7.2 15.1638 9.216 17.1905 11.7 17.1905C14.184 17.1905 16.2 15.1638 16.2 12.6667Z" fill="#595B5E"/>
</g>
<defs>
<clipPath id="clip0_247_204">
<rect width="18" height="19" fill="white"/>
</clipPath>
</defs>
</svg>
