<svg width="23" height="25" viewBox="0 0 23 25" fill="none" xmlns="http://www.w3.org/2000/svg">
<path d="M23 4.36047C23 6.76868 17.8513 8.72093 11.5 8.72093C5.14873 8.72093 0 6.76868 0 4.36047C0 1.95225 5.14873 0 11.5 0C17.8513 0 23 1.95225 23 4.36047Z" fill="#595B5E"/>
<path fill-rule="evenodd" clip-rule="evenodd" d="M2.48649 4.65116V9.82607C2.48649 10.0044 2.57101 10.2704 2.93585 10.6175C3.30607 10.9697 3.90312 11.3402 4.73874 11.6765C6.40568 12.3473 8.79527 12.7907 11.5 12.7907C14.2047 12.7907 16.5943 12.3473 18.2613 11.6765C19.0969 11.3402 19.6939 10.9697 20.0641 10.6175C20.429 10.2704 20.5135 10.0044 20.5135 9.82607V4.65116H23V9.82607C23 10.7875 22.5105 11.6073 21.8373 12.2478C21.1695 12.8832 20.2645 13.4021 19.244 13.8127C17.1987 14.6358 14.4599 15.1163 11.5 15.1163C8.54008 15.1163 5.80129 14.6358 3.75602 13.8127C2.73553 13.4021 1.83051 12.8832 1.16269 12.2478C0.489487 11.6073 0 10.7875 0 9.82607V4.65116H2.48649Z" fill="#595B5E"/>
<path fill-rule="evenodd" clip-rule="evenodd" d="M4.35135 12.5V20.2257C4.35135 20.4942 4.6573 21.1084 6.08572 21.7231C7.40721 22.2918 9.32021 22.6744 11.5 22.6744C13.6798 22.6744 15.5928 22.2918 16.9143 21.7231C18.3427 21.1084 18.6486 20.4942 18.6486 20.2257V12.5H21.1351V20.2257C21.1351 21.9518 19.5625 23.1434 17.9536 23.8358C16.2379 24.5741 13.9549 25 11.5 25C9.04507 25 6.76213 24.5741 5.04636 23.8358C3.4375 23.1434 1.86486 21.9518 1.86486 20.2257V12.5H4.35135Z" fill="#595B5E"/>
<path fill-rule="evenodd" clip-rule="evenodd" d="M5.52 22.2222L5.52 12.963H7.36L7.36 22.2222H5.52Z" fill="#595B5E"/>
</svg>
